<svg version="1.1" id="Capa_1" xmlns="http://www.w3.org/2000/svg" xmlns:xlink="http://www.w3.org/1999/xlink" x="0px" y="0px"
	 viewBox="0 0 512 512" style="enable-background:new 0 0 512 512;" xml:space="preserve">
		<path d="M489.379,161.149L489.379,161.149c-37.348,0-72.139,34.039-109.734,79.516l31.395-177.75l-22.28,5.347
			c-34.268,8.223-58.291,47.409-82.538,97.382L256,1.537l-50.222,164.107c-24.247-49.973-48.27-89.159-82.538-97.382l-22.28-5.347
			l31.395,177.75C94.76,195.188,59.97,161.15,22.621,161.15H0L104.815,410.08C130.49,471.06,189.834,510.463,256,510.463
			S381.51,471.06,407.185,410.08L512,161.149H489.379z M315.797,215.917c17.931-38.786,36.293-78.507,55.531-100.873
			l-30.841,174.613c-13.145,16.598-26.503,33.234-40.219,49.076c-9.536-11.171-18.434-23.864-26.812-37.461
			C289.044,273.77,302.628,244.404,315.797,215.917z M256,104.19l31.209,101.981c-9.94,21.498-20.146,43.438-31.193,64.378
			c-11.195-21.194-21.48-43.3-31.226-64.376L256,104.19z M196.202,215.917c23.017,49.792,48.853,105.655,83.785,145.273
			c-7.852,8.273-15.838,16.17-23.983,23.538c-29.923-27.086-58.003-61.631-84.49-95.071l-30.841-174.612
			C159.91,137.411,178.272,177.133,196.202,215.917z M256,480.424c-54.049,0-102.526-32.187-123.499-82.002L49.137,200.441
			c27.292,17.313,58.3,56.571,90.646,97.523c53.45,67.673,113.04,143.119,186.239,162.775
			C305.406,473.364,281.316,480.424,256,480.424z M379.499,398.423c-5.8,13.776-13.704,26.203-23.247,36.976
			c-26.861-1.62-52.417-13.495-76.803-31.404c33.436-30.914,63.54-69.028,92.766-106.029c32.345-40.951,63.355-80.21,90.647-97.524
			L379.499,398.423z"/>
</svg>
