<svg version="1.1" id="Capa_1" xmlns="http://www.w3.org/2000/svg" xmlns:xlink="http://www.w3.org/1999/xlink" x="0px" y="0px"
	 viewBox="0 0 495.997 495.997" style="enable-background:new 0 0 495.997 495.997;" xml:space="preserve">
<g>
	<g>
		<path d="M494.948,260.038c-1.912-3.352-5.928-4.864-9.576-3.592l-45.088,15.68c-46.336,16.12-87.704,41.592-122.944,75.712
			l11.136,11.504c33.552-32.496,72.936-56.752,117.064-72.104l4.432-1.536l-18.36,15.528
			c-35.632,30.152-66.496,65.344-91.736,104.608c-17.912,27.864-46.968,45.776-79.368,49.456
			c14.584-31.76,34.144-60.696,58.272-86.168l-11.616-11c-19.928,21.024-36.816,44.36-50.6,69.576
			c2.408-57.328,14.92-112.824,36.616-164.312c8.88,19.208,28.288,32.608,50.816,32.608h24v-8c0-12.384-4.088-23.8-10.92-33.088
			c3.536,0.704,7.184,1.088,10.92,1.088h24v-8c0-8.712-2.056-16.928-5.616-24.288c1.848,0.192,3.72,0.288,5.616,0.288h24v-8
			c0-8.712-2.056-16.928-5.616-24.288c1.848,0.192,3.72,0.288,5.616,0.288h24v-8c0-8.712-2.056-16.928-5.616-24.288
			c1.848,0.192,3.72,0.288,5.616,0.288h24v-8c0-29.512-22.968-53.712-51.968-55.792c7.168-6.48,14.512-12.8,22.12-18.88
			l18.84-15.072l-9.992-12.496l-18.84,15.072c-5.112,4.088-10.008,8.384-14.936,12.648c4.472-17.432,6.776-35.32,6.776-53.48h-16
			c0,14.176-1.64,28.152-4.584,41.864c-8.6-19.896-28.4-33.864-51.416-33.864h-8v24c0,3.648,0.376,7.216,1.048,10.672
			c-5.376-1.72-11.104-2.672-17.048-2.672h-8v24c0,3.648,0.376,7.216,1.048,10.672c-5.376-1.72-11.104-2.672-17.048-2.672h-8v24
			c0,8.864,2.128,17.216,5.808,24.68c-8.648-5.464-18.848-8.68-29.808-8.68h-8h-16h-8c-10.96,0-21.16,3.216-29.808,8.68
			c3.68-7.464,5.808-15.816,5.808-24.68v-24h-8c-5.944,0-11.672,0.952-17.048,2.672c0.672-3.456,1.048-7.024,1.048-10.672v-24h-8
			c-5.944,0-11.672,0.952-17.048,2.672c0.672-3.456,1.048-7.024,1.048-10.672v-24h-8c-23.016,0-42.816,13.968-51.416,33.864
			c-2.944-13.712-4.584-27.688-4.584-41.864h-16c0,18.16,2.304,36.048,6.768,53.464c-4.92-4.264-9.816-8.552-14.936-12.648
			L52.996,49.75l-10,12.496l18.84,15.072c7.608,6.088,14.96,12.408,22.12,18.88c-28.992,2.088-51.96,26.288-51.96,55.8v8h24
			c1.896,0,3.768-0.096,5.616-0.288c-3.56,7.36-5.616,15.576-5.616,24.288v8h24c1.896,0,3.768-0.096,5.616-0.288
			c-3.56,7.36-5.616,15.576-5.616,24.288v8h24c1.896,0,3.768-0.096,5.616-0.288c-3.56,7.36-5.616,15.576-5.616,24.288v8h24
			c3.736,0,7.384-0.384,10.92-1.088c-6.832,9.288-10.92,20.704-10.92,33.088v8h24c22.528,0,41.936-13.4,50.816-32.616
			c21.688,51.464,34.192,106.936,36.616,164.232C199.78,355.238,134.452,299.51,55.716,272.118l-45.088-15.68
			c-3.656-1.28-7.664,0.24-9.576,3.592c-1.912,3.344-1.16,7.576,1.784,10.072l51.216,43.336
			c34.416,29.12,64.232,63.12,88.616,101.048c23.136,36.008,62.512,57.512,105.328,57.512s82.192-21.504,105.336-57.504
			c24.384-37.928,54.192-71.928,88.616-101.048l51.216-43.336C496.108,267.614,496.852,263.382,494.948,260.038z M156.116,405.83
			c-25.24-39.264-56.112-74.464-91.736-104.608l-18.36-15.528l4.432,1.536c82.08,28.552,148.88,89.432,185.024,168.056
			C203.084,451.598,174.028,433.702,156.116,405.83z M283.916,244.886c2.608-6.464,4.08-13.504,4.08-20.888v-8h-24
			c-0.744,0-1.464,0.08-2.192,0.112c4.56-6.48,7.76-13.96,9.24-22.056c7.52,3.768,15.976,5.944,24.952,5.944h11.216
			C298.668,214.558,290.892,229.526,283.916,244.886z M343.996,279.998c-19.32,0-35.48-13.768-39.192-32h7.192
			c19.32,0,35.48,13.768,39.192,32H343.996z M315.084,218.166c1.856,5.392,4.52,10.408,7.84,14.92
			c-3.544-0.704-7.192-1.088-10.928-1.088H307.9C310.268,227.374,312.564,222.718,315.084,218.166z M314.188,167.326
			c3.264,2.064,6.744,3.784,10.416,5.144c-1.928,2.832-3.84,5.68-5.704,8.552C317.94,176.198,316.308,171.622,314.188,167.326z
			 M367.996,239.998c-19.32,0-35.48-13.768-39.192-32h7.192c19.32,0,35.48,13.768,39.192,32H367.996z M330.812,191.998
			c2.248-3.504,4.584-6.944,6.928-10.392c0.936,3.72,2.232,7.288,3.872,10.68c-1.848-0.192-3.72-0.288-5.616-0.288H330.812z
			 M391.996,207.998c-19.32,0-35.48-13.768-39.192-32h7.192c19.32,0,35.48,13.768,39.192,32H391.996z M353.34,159.998
			c2.736-3.576,5.488-7.144,8.336-10.648c0.936,3.816,2.264,7.472,3.936,10.936c-1.848-0.192-3.72-0.288-5.616-0.288H353.34z
			 M374.948,109.326c0.208,0.064,0.408,0.136,0.616,0.2c-0.168,0.176-0.336,0.36-0.504,0.536
			C375.02,109.822,374.996,109.566,374.948,109.326z M407.996,111.998c19.32,0,35.48,13.768,39.192,32h-7.192
			c-19.32,0-35.48-13.768-39.192-32H407.996z M423.188,175.998h-7.192c-19.32,0-35.48-13.768-39.192-32h7.192
			C403.316,143.998,419.476,157.766,423.188,175.998z M389.612,128.286c-1.848-0.192-3.72-0.288-5.616-0.288h-3.864
			c2.144-2.344,4.344-4.64,6.544-6.936C387.476,123.558,388.484,125.95,389.612,128.286z M351.996,48.806
			c18.232,3.72,32,19.872,32,39.192v7.192c-18.232-3.72-32-19.872-32-39.192V48.806z M327.996,80.806
			c18.232,3.72,32,19.872,32,39.192v6.512c-0.16,0.184-0.304,0.368-0.464,0.552c-17.992-3.904-31.536-19.912-31.536-39.064V80.806z
			 M303.996,112.806c18.232,3.72,32,19.872,32,39.192v4.456c-0.56,0.752-1.136,1.488-1.688,2.24
			c-17.368-4.36-30.312-19.992-30.312-38.696V112.806z M263.996,151.998c19.32,0,35.48,13.768,39.192,32h-7.192
			c-19.32,0-35.48-13.768-39.192-32H263.996z M247.996,172.694c0.672,1.12,1.36,2.232,2.112,3.304h-2.112
			c-0.744,0-1.464,0.08-2.192,0.112C246.58,175.006,247.3,173.854,247.996,172.694z M191.996,112.806v7.192
			c0,18.704-12.944,34.336-30.312,38.696c-0.552-0.752-1.128-1.496-1.688-2.24v-4.456
			C159.996,132.678,173.764,116.518,191.996,112.806z M180.916,218.166c2.512,4.552,4.808,9.208,7.176,13.832h-4.096
			c-3.736,0-7.384,0.384-10.92,1.088C176.396,228.574,179.052,223.566,180.916,218.166z M171.388,172.462
			c3.664-1.36,7.152-3.08,10.416-5.144c-2.12,4.296-3.752,8.872-4.712,13.696C175.228,178.15,173.316,175.302,171.388,172.462z
			 M165.18,191.998h-5.184c-1.896,0-3.768,0.096-5.616,0.288c1.64-3.392,2.936-6.96,3.872-10.68
			C160.596,185.046,162.932,188.494,165.18,191.998z M167.996,80.806v7.192c0,19.152-13.544,35.16-31.536,39.056
			c-0.16-0.184-0.304-0.368-0.464-0.552v-6.504C135.996,100.678,149.764,84.518,167.996,80.806z M142.652,159.998h-6.656
			c-1.896,0-3.768,0.096-5.616,0.288c1.672-3.464,3-7.12,3.936-10.936C137.164,152.854,139.908,156.422,142.652,159.998z
			 M111.996,87.998c0-19.32,13.768-35.48,32-39.192v7.192c0,19.32-13.768,35.48-32,39.192V87.998z M121.044,109.326
			c-0.048,0.24-0.072,0.496-0.112,0.736c-0.168-0.176-0.336-0.36-0.504-0.536C120.636,109.462,120.836,109.39,121.044,109.326z
			 M109.316,121.062c2.192,2.304,4.4,4.6,6.544,6.936h-3.864c-1.896,0-3.768,0.096-5.616,0.288
			C107.508,125.95,108.516,123.558,109.316,121.062z M55.996,143.998h-7.192c3.712-18.232,19.88-32,39.192-32h7.192
			C91.476,130.23,75.308,143.998,55.996,143.998z M79.996,175.998h-7.192c3.712-18.232,19.88-32,39.192-32h7.192
			C115.476,162.23,99.308,175.998,79.996,175.998z M103.996,207.998h-7.192c3.712-18.232,19.88-32,39.192-32h7.192
			C139.476,194.23,123.308,207.998,103.996,207.998z M127.996,239.998h-7.192c3.712-18.232,19.88-32,39.192-32h7.192
			C163.476,226.23,147.308,239.998,127.996,239.998z M151.996,279.998h-7.192c3.712-18.232,19.88-32,39.192-32h7.192
			C187.476,266.23,171.316,279.998,151.996,279.998z M195.764,211.966c-2.224-4.048-4.648-7.984-6.984-11.968h11.216
			c0.744,0,1.456-0.08,2.192-0.112C199.572,203.606,197.42,207.654,195.764,211.966z M199.996,183.998h-7.192
			c3.712-18.232,19.88-32,39.192-32h7.192C235.476,170.23,219.308,183.998,199.996,183.998z M247.996,191.998h7.192
			c-3.712,18.232-19.88,32-39.192,32h-7.192C212.516,205.766,228.676,191.998,247.996,191.998z M213.468,248.006
			c-1.192-2.672-2.336-5.36-3.576-8.008h6.104c0.744,0,1.456-0.08,2.192-0.112C216.388,242.438,214.828,245.158,213.468,248.006z
			 M263.996,231.998h7.192c-3.712,18.232-19.88,32-39.192,32h-7.192C228.516,245.766,244.676,231.998,263.996,231.998z
			 M226.46,279.998h5.536c22.376,0,41.672-13.224,50.632-32.232c-15.912,35.632-27.608,73.184-34.632,112.032
			C243.06,332.494,235.836,305.822,226.46,279.998z"/>
	</g>
</g>
</svg>
