<svg version="1.1" id="Capa_1" xmlns="http://www.w3.org/2000/svg" xmlns:xlink="http://www.w3.org/1999/xlink" x="0px" y="0px"
	 viewBox="0 0 323.64 323.64" style="enable-background:new 0 0 323.64 323.64;" xml:space="preserve">
<g>
	<g>
		<g>
			<path d="M161.84,49.24c2.883,0,5.22-2.337,5.22-5.22V5.22c0-2.883-2.337-5.22-5.22-5.22s-5.22,2.337-5.22,5.22v38.8
				C156.62,46.903,158.957,49.24,161.84,49.24z"/>
			<path d="M23.62,88.02l33.6,19.36c2.496,1.436,5.684,0.576,7.12-1.92c1.436-2.496,0.576-5.684-1.92-7.12l-33.6-19.36
				c-2.496-1.436-5.684-0.576-7.12,1.92C20.264,83.396,21.124,86.584,23.62,88.02z"/>
			<path d="M98.46,62.38c1.447,2.496,4.644,3.347,7.14,1.9c2.496-1.447,3.347-4.644,1.9-7.14L88.06,23.58
				c-1.447-2.496-4.644-3.347-7.14-1.9c-2.496,1.447-3.347,4.644-1.9,7.14L98.46,62.38z"/>
			<path d="M218.3,79.98c-34.217-23.631-79.523-23.485-113.588,0.365c-45.006,31.511-55.946,93.541-24.435,138.548
				s93.541,55.946,138.548,24.435c45.006-31.511,55.946-93.541,24.435-138.548c-1.646-2.364-4.896-2.946-7.26-1.3
				c-2.364,1.646-2.946,4.896-1.3,7.26h0.04c21.301,30.367,21.482,70.775,0.455,101.332
				c-27.801,40.402-83.091,50.616-123.492,22.815s-50.616-83.091-22.815-123.492c27.801-40.402,83.091-50.616,123.492-22.815
				c2.375,1.635,5.625,1.035,7.26-1.34S220.675,81.615,218.3,79.98z"/>
			<path d="M266.5,107.5l33.56-19.44c2.496-1.447,3.347-4.644,1.9-7.14s-4.644-3.347-7.14-1.9l-33.56,19.44
				c-2.496,1.447-3.347,4.644-1.9,7.14C260.807,108.096,264.004,108.947,266.5,107.5z"/>
			<path d="M161.82,91.1c-2.89,0.003-5.233,2.345-5.236,5.236c-0.002,2.894,2.342,5.242,5.236,5.245
				c33.27,0,60.24,26.97,60.24,60.24c0,2.894,2.346,5.24,5.24,5.24c2.894,0,5.24-2.346,5.24-5.24
				C232.54,122.762,200.878,91.1,161.82,91.1z"/>
			<path d="M218.18,64.34c2.496,1.436,5.684,0.576,7.12-1.92l19.36-33.6c1.436-2.496,0.576-5.684-1.92-7.12
				c-2.496-1.436-5.684-0.576-7.12,1.92l-19.36,33.6C214.824,59.716,215.684,62.904,218.18,64.34z"/>
			<path d="M300.02,235.62l-33.6-19.36c-2.496-1.436-5.684-0.576-7.12,1.92c-1.436,2.496-0.576,5.684,1.92,7.12l33.6,19.36
				c2.496,1.436,5.684,0.576,7.12-1.92C303.376,240.244,302.516,237.056,300.02,235.62z"/>
			<path d="M49.24,161.8c0-2.883-2.337-5.22-5.22-5.22H5.22c-2.883,0-5.22,2.337-5.22,5.22s2.337,5.22,5.22,5.22h38.8
				C46.903,167.02,49.24,164.683,49.24,161.8z"/>
			<path d="M318.42,156.62h-38.8c-2.883,0-5.22,2.337-5.22,5.22s2.337,5.22,5.22,5.22h38.8c2.883,0,5.22-2.337,5.22-5.22
				S321.303,156.62,318.42,156.62z"/>
			<path d="M225.18,261.26c-1.447-2.496-4.644-3.347-7.14-1.9c-2.496,1.447-3.347,4.644-1.9,7.14l19.44,33.56
				c1.447,2.496,4.644,3.347,7.14,1.9c2.496-1.447,3.347-4.644,1.9-7.14L225.18,261.26z"/>
			<path d="M57.14,216.14l-33.56,19.44c-2.496,1.447-3.347,4.644-1.9,7.14c1.447,2.496,4.644,3.347,7.14,1.9l33.56-19.44
				c2.496-1.447,3.347-4.644,1.9-7.14S59.636,214.693,57.14,216.14z"/>
			<path d="M161.8,274.4c-2.883,0-5.22,2.337-5.22,5.22v38.8c0,2.883,2.337,5.22,5.22,5.22s5.22-2.337,5.22-5.22v-38.8
				C167.02,276.737,164.683,274.4,161.8,274.4z"/>
			<path d="M105.46,259.3c-2.496-1.436-5.684-0.576-7.12,1.92l-19.36,33.6c-1.436,2.496-0.576,5.684,1.92,7.12
				c2.496,1.436,5.684,0.576,7.12-1.92l19.36-33.6C108.816,263.924,107.956,260.736,105.46,259.3z"/>
		</g>
	</g>
</g>
</svg>
